G04 EAGLE Gerber RS-274X export*
G75*
%MOMM*%
%FSLAX34Y34*%
%LPD*%
%INBottom Copper*%
%IPPOS*%
%AMOC8*
5,1,8,0,0,1.08239X$1,22.5*%
G01*
G04 Define Apertures*
%ADD10C,1.999997*%
%ADD11C,2.000000*%
%ADD12C,0.508000*%
D10*
X332900Y812550D02*
X352900Y812550D01*
X586900Y812550D02*
X606900Y812550D01*
X352900Y787150D02*
X332900Y787150D01*
X586900Y787150D02*
X606900Y787150D01*
X352900Y761750D02*
X332900Y761750D01*
X586900Y761750D02*
X606900Y761750D01*
X352900Y736350D02*
X332900Y736350D01*
X586900Y736350D02*
X606900Y736350D01*
X352900Y710950D02*
X332900Y710950D01*
X586900Y710950D02*
X606900Y710950D01*
X352900Y685550D02*
X332900Y685550D01*
X586900Y685550D02*
X606900Y685550D01*
X352900Y660150D02*
X332900Y660150D01*
X586900Y660150D02*
X606900Y660150D01*
X352900Y634750D02*
X332900Y634750D01*
X586900Y634750D02*
X606900Y634750D01*
X352900Y609350D02*
X332900Y609350D01*
X586900Y609350D02*
X606900Y609350D01*
X352900Y583950D02*
X332900Y583950D01*
X586900Y583950D02*
X606900Y583950D01*
X352900Y558550D02*
X332900Y558550D01*
X586900Y558550D02*
X606900Y558550D01*
X352900Y533150D02*
X332900Y533150D01*
X586900Y533150D02*
X606900Y533150D01*
X352900Y507750D02*
X332900Y507750D01*
X586900Y507750D02*
X606900Y507750D01*
X352900Y482350D02*
X332900Y482350D01*
X586900Y482350D02*
X606900Y482350D01*
X352900Y456950D02*
X332900Y456950D01*
X586900Y456950D02*
X606900Y456950D01*
X352900Y431550D02*
X332900Y431550D01*
X586900Y431550D02*
X606900Y431550D01*
X352900Y406150D02*
X332900Y406150D01*
X586900Y406150D02*
X606900Y406150D01*
X352900Y380750D02*
X332900Y380750D01*
X586900Y380750D02*
X606900Y380750D01*
X352900Y355350D02*
X332900Y355350D01*
X586900Y355350D02*
X606900Y355350D01*
X352900Y329950D02*
X332900Y329950D01*
X586900Y329950D02*
X606900Y329950D01*
X144718Y584857D02*
X124718Y584857D01*
X124718Y559857D02*
X144718Y559857D01*
X144718Y534857D02*
X124718Y534857D01*
X124718Y509857D02*
X144718Y509857D01*
X141526Y465374D02*
X121526Y465374D01*
X121526Y440374D02*
X141526Y440374D01*
X141526Y415374D02*
X121526Y415374D01*
X121526Y390374D02*
X141526Y390374D01*
D11*
X658696Y519740D02*
X658696Y539740D01*
X658696Y422140D02*
X658696Y402140D01*
X696476Y515364D02*
X696476Y535364D01*
X696476Y417764D02*
X696476Y397764D01*
X734256Y514066D02*
X734256Y534066D01*
X734256Y416466D02*
X734256Y396466D01*
D10*
X670400Y359984D02*
X650400Y359984D01*
X650400Y334984D02*
X670400Y334984D01*
X670400Y309984D02*
X650400Y309984D01*
X650400Y284984D02*
X670400Y284984D01*
D11*
X522700Y939800D02*
X502700Y939800D01*
X620300Y939800D02*
X640300Y939800D01*
X697116Y715120D02*
X697116Y695120D01*
X697116Y597520D02*
X697116Y577520D01*
D10*
X267000Y850900D02*
X247000Y850900D01*
X247000Y825900D02*
X267000Y825900D01*
X267000Y800900D02*
X247000Y800900D01*
X247000Y775900D02*
X267000Y775900D01*
X308444Y263997D02*
X307956Y244003D01*
X332948Y243392D02*
X333437Y263386D01*
X358429Y262775D02*
X357941Y242781D01*
X267000Y723900D02*
X247000Y723900D01*
X247000Y698900D02*
X267000Y698900D01*
X267000Y673900D02*
X247000Y673900D01*
X247000Y648900D02*
X267000Y648900D01*
X137761Y722357D02*
X117761Y722357D01*
X117761Y697357D02*
X137761Y697357D01*
X137761Y672357D02*
X117761Y672357D01*
X117761Y647357D02*
X137761Y647357D01*
X184091Y724509D02*
X204091Y724509D01*
X204091Y699509D02*
X184091Y699509D01*
X184091Y674509D02*
X204091Y674509D01*
X204091Y649509D02*
X184091Y649509D01*
X663100Y787400D02*
X683100Y787400D01*
X683100Y762400D02*
X663100Y762400D01*
X276700Y927100D02*
X256700Y927100D01*
X256700Y902100D02*
X276700Y902100D01*
X332900Y952500D02*
X352900Y952500D01*
X352900Y927500D02*
X332900Y927500D01*
X332900Y902500D02*
X352900Y902500D01*
X523400Y266700D02*
X543400Y266700D01*
X543400Y241700D02*
X523400Y241700D01*
X234060Y256700D02*
X234060Y276700D01*
X259060Y276700D02*
X259060Y256700D01*
X426340Y929800D02*
X426340Y949800D01*
X451340Y949800D02*
X451340Y929800D01*
D12*
X294640Y797560D02*
X259080Y797560D01*
X294640Y797560D02*
X330200Y762000D01*
X340360Y762000D01*
X259080Y797560D02*
X257000Y800900D01*
X340360Y762000D02*
X342900Y761750D01*
X294640Y772160D02*
X259080Y772160D01*
X294640Y772160D02*
X330200Y736600D01*
X340360Y736600D01*
X259080Y772160D02*
X257000Y775900D01*
X340360Y736600D02*
X342900Y736350D01*
X259080Y589280D02*
X137160Y589280D01*
X259080Y589280D02*
X325120Y655320D01*
X340360Y655320D01*
X137160Y589280D02*
X134718Y584857D01*
X340360Y655320D02*
X342900Y660150D01*
X259080Y563880D02*
X137160Y563880D01*
X259080Y563880D02*
X325120Y629920D01*
X340360Y629920D01*
X137160Y563880D02*
X134718Y559857D01*
X340360Y629920D02*
X342900Y634750D01*
X259080Y538480D02*
X137160Y538480D01*
X259080Y538480D02*
X325120Y604520D01*
X340360Y604520D01*
X137160Y538480D02*
X134718Y534857D01*
X340360Y604520D02*
X342900Y609350D01*
X259080Y513080D02*
X137160Y513080D01*
X259080Y513080D02*
X325120Y579120D01*
X340360Y579120D01*
X137160Y513080D02*
X134718Y509857D01*
X340360Y579120D02*
X342900Y583950D01*
X238760Y467360D02*
X132080Y467360D01*
X238760Y467360D02*
X325120Y553720D01*
X340360Y553720D01*
X132080Y467360D02*
X131526Y465374D01*
X340360Y553720D02*
X342900Y558550D01*
X599440Y457200D02*
X609600Y457200D01*
X655320Y502920D01*
X655320Y528320D01*
X599440Y457200D02*
X596900Y456950D01*
X655320Y528320D02*
X658696Y529740D01*
X609600Y431800D02*
X599440Y431800D01*
X609600Y431800D02*
X701040Y523240D01*
X599440Y431800D02*
X596900Y431550D01*
X696476Y525364D02*
X701040Y523240D01*
X614680Y406400D02*
X599440Y406400D01*
X614680Y406400D02*
X731520Y523240D01*
X599440Y406400D02*
X596900Y406150D01*
X731520Y523240D02*
X734256Y524066D01*
X660400Y411480D02*
X660400Y359984D01*
X660400Y411480D02*
X658696Y412140D01*
X660400Y335280D02*
X675640Y335280D01*
X695960Y355600D01*
X695960Y406400D01*
X660400Y335280D02*
X660400Y334984D01*
X695960Y406400D02*
X696476Y407764D01*
X675640Y314960D02*
X660400Y314960D01*
X675640Y314960D02*
X731520Y370840D01*
X731520Y406400D01*
X660400Y314960D02*
X660400Y309984D01*
X731520Y406400D02*
X734256Y406466D01*
X645160Y736600D02*
X599440Y736600D01*
X655320Y746760D02*
X670560Y762000D01*
X655320Y746760D02*
X645160Y736600D01*
X599440Y736600D02*
X596900Y736350D01*
X670560Y762000D02*
X673100Y762400D01*
X655320Y746760D02*
X695960Y706120D01*
X697116Y705120D01*
X594360Y762000D02*
X584200Y762000D01*
X553720Y792480D01*
X553720Y949960D01*
X523240Y980440D01*
X320040Y980440D01*
X266700Y927100D01*
X594360Y762000D02*
X596900Y761750D01*
X309880Y335280D02*
X309880Y254000D01*
X309880Y335280D02*
X325120Y350520D01*
X340360Y350520D01*
X309880Y254000D02*
X308200Y254000D01*
X340360Y350520D02*
X342900Y355350D01*
X584200Y711200D02*
X594360Y711200D01*
X584200Y711200D02*
X543560Y751840D01*
X543560Y944880D01*
X518160Y970280D01*
X360680Y970280D01*
X342900Y952500D01*
X594360Y711200D02*
X596900Y710950D01*
X599440Y680720D02*
X685800Y680720D01*
X690880Y675640D01*
X706120Y675640D01*
X716280Y685800D01*
X716280Y858520D01*
X635000Y939800D01*
X596900Y685550D02*
X599440Y680720D01*
X630300Y939800D02*
X635000Y939800D01*
X289560Y441960D02*
X132080Y441960D01*
X289560Y441960D02*
X325120Y477520D01*
X340360Y477520D01*
X132080Y441960D02*
X131526Y440374D01*
X340360Y477520D02*
X342900Y482350D01*
X289560Y416560D02*
X132080Y416560D01*
X289560Y416560D02*
X325120Y452120D01*
X340360Y452120D01*
X132080Y416560D02*
X131526Y415374D01*
X340360Y452120D02*
X342900Y456950D01*
X289560Y391160D02*
X132080Y391160D01*
X289560Y391160D02*
X325120Y426720D01*
X340360Y426720D01*
X132080Y391160D02*
X131526Y390374D01*
X340360Y426720D02*
X342900Y431550D01*
X259080Y309880D02*
X259080Y269240D01*
X259080Y309880D02*
X325120Y375920D01*
X340360Y375920D01*
X259080Y269240D02*
X259060Y266700D01*
X340360Y375920D02*
X342900Y380750D01*
X238760Y314960D02*
X238760Y269240D01*
X238760Y314960D02*
X325120Y401320D01*
X340360Y401320D01*
X238760Y269240D02*
X234060Y266700D01*
X340360Y401320D02*
X342900Y406150D01*
X451340Y939800D02*
X512700Y939800D01*
X193040Y675640D02*
X132080Y675640D01*
X127761Y672357D01*
X193040Y675640D02*
X194091Y674509D01*
X198120Y675640D02*
X254000Y675640D01*
X257000Y673900D01*
X198120Y675640D02*
X194091Y674509D01*
X299720Y706120D02*
X340360Y706120D01*
X299720Y706120D02*
X269240Y675640D01*
X259080Y675640D01*
X340360Y706120D02*
X342900Y710950D01*
X259080Y675640D02*
X257000Y673900D01*
X193040Y650240D02*
X132080Y650240D01*
X127761Y647357D01*
X193040Y650240D02*
X194091Y649509D01*
X198120Y650240D02*
X254000Y650240D01*
X257000Y648900D01*
X198120Y650240D02*
X194091Y649509D01*
X299720Y680720D02*
X340360Y680720D01*
X299720Y680720D02*
X269240Y650240D01*
X259080Y650240D01*
X340360Y680720D02*
X342900Y685550D01*
X259080Y650240D02*
X257000Y648900D01*
X193040Y726440D02*
X132080Y726440D01*
X127761Y722357D01*
X193040Y726440D02*
X194091Y724509D01*
X198120Y726440D02*
X228600Y726440D01*
X254000Y726440D01*
X257000Y723900D01*
X198120Y726440D02*
X194091Y724509D01*
X670560Y787400D02*
X670560Y848360D01*
X528320Y990600D01*
X294640Y990600D01*
X228600Y924560D01*
X228600Y843280D01*
X243840Y828040D01*
X254000Y828040D01*
X670560Y787400D02*
X673100Y787400D01*
X257000Y825900D02*
X254000Y828040D01*
X284480Y812800D02*
X340360Y812800D01*
X284480Y812800D02*
X274320Y822960D01*
X259080Y822960D01*
X340360Y812800D02*
X342900Y812550D01*
X259080Y822960D02*
X257000Y825900D01*
X228600Y812800D02*
X228600Y726440D01*
X228600Y812800D02*
X243840Y828040D01*
X257000Y825900D01*
X259080Y853440D02*
X259080Y894080D01*
X264160Y899160D01*
X259080Y853440D02*
X257000Y850900D01*
X264160Y899160D02*
X266700Y902100D01*
X345440Y929640D02*
X411480Y929640D01*
X421640Y939800D01*
X345440Y929640D02*
X342900Y927500D01*
X421640Y939800D02*
X426340Y939800D01*
X304800Y904240D02*
X269240Y904240D01*
X304800Y904240D02*
X325120Y924560D01*
X340360Y924560D01*
X269240Y904240D02*
X266700Y902100D01*
X340360Y924560D02*
X342900Y927500D01*
X193040Y701040D02*
X132080Y701040D01*
X127761Y697357D01*
X193040Y701040D02*
X194091Y699509D01*
X198120Y701040D02*
X254000Y701040D01*
X257000Y698900D01*
X198120Y701040D02*
X194091Y699509D01*
X533400Y243840D02*
X548640Y243840D01*
X594360Y289560D01*
X594360Y320040D02*
X594360Y325120D01*
X594360Y320040D02*
X594360Y289560D01*
X594360Y325120D02*
X596900Y329950D01*
X528320Y248920D02*
X365760Y248920D01*
X360680Y248920D01*
X528320Y248920D02*
X533400Y243840D01*
X360680Y248920D02*
X358185Y252778D01*
X533400Y243840D02*
X533400Y241700D01*
X594360Y289560D02*
X660400Y289560D01*
X701040Y584200D02*
X711200Y584200D01*
X756920Y538480D01*
X756920Y370840D01*
X675640Y289560D01*
X660400Y289560D01*
X701040Y584200D02*
X697116Y587520D01*
X660400Y289560D02*
X660400Y284984D01*
X127000Y695960D02*
X111760Y695960D01*
X96520Y680720D01*
X96520Y365760D01*
X238760Y223520D01*
X340360Y223520D01*
X365760Y248920D01*
X127000Y695960D02*
X127761Y697357D01*
X358185Y252778D02*
X365760Y248920D01*
X411480Y502920D02*
X411480Y929640D01*
X411480Y502920D02*
X594360Y320040D01*
X596900Y329950D01*
X335280Y320040D02*
X335280Y284480D01*
X335280Y254000D01*
X335280Y320040D02*
X340360Y325120D01*
X335280Y254000D02*
X333193Y253389D01*
X340360Y325120D02*
X342900Y329950D01*
X381000Y269240D02*
X533400Y269240D01*
X381000Y269240D02*
X365760Y284480D01*
X335280Y284480D01*
X533400Y269240D02*
X533400Y266700D01*
X345440Y848360D02*
X345440Y899160D01*
X345440Y848360D02*
X383540Y810260D01*
X383540Y358140D01*
X355600Y330200D01*
X345440Y330200D01*
X345440Y899160D02*
X342900Y902500D01*
X345440Y330200D02*
X342900Y329950D01*
M02*
