M48
;GenerationSoftware,Autodesk,EAGLE,9.7.0*%
;CreationDate,2026-03-03T17:51:58Z*%
FMAT,2
ICI,OFF
METRIC,TZ,000.000
T3C1.000
T2C1.000
T1C2.800
%
G90
M71
T1
X71120Y92710
X15240Y91440
X69850Y24130
T2
X65870Y52974
X65870Y41214
X69648Y52536
X69648Y40776
X73426Y52407
X73426Y40647
X51270Y93980
X63030Y93980
X69712Y70512
X69712Y58752
T3
X34290Y68555
X59690Y68555
X34290Y66015
X59690Y66015
X34290Y63475
X59690Y63475
X34290Y60935
X59690Y60935
X34290Y58395
X59690Y58395
X34290Y55855
X59690Y55855
X34290Y53315
X59690Y53315
X34290Y50775
X59690Y50775
X34290Y48235
X59690Y48235
X34290Y45695
X59690Y45695
X34290Y43155
X59690Y43155
X34290Y40615
X59690Y40615
X34290Y38075
X59690Y38075
X34290Y35535
X59690Y35535
X34290Y32995
X59690Y32995
X13472Y58486
X13472Y55986
X13472Y53486
X13472Y50986
X13153Y46537
X13153Y44037
X13153Y41537
X13153Y39037
X34290Y81255
X59690Y81255
X34290Y78715
X59690Y78715
X34290Y76175
X59690Y76175
X66040Y35998
X66040Y33498
X66040Y30998
X66040Y28498
X34290Y73635
X59690Y73635
X34290Y71095
X59690Y71095
X25700Y85090
X25700Y82590
X25700Y80090
X25700Y77590
X30820Y25400
X33319Y25339
X35819Y25278
X25700Y72390
X25700Y69890
X25700Y67390
X25700Y64890
X12776Y72236
X12776Y69736
X12776Y67236
X12776Y64736
X19409Y72451
X19409Y69951
X19409Y67451
X19409Y64951
X67310Y78740
X67310Y76240
X26670Y92710
X26670Y90210
X34290Y95250
X34290Y92750
X34290Y90250
X53340Y26670
X53340Y24170
X23406Y26670
X25906Y26670
X42634Y93980
X45134Y93980
M30